<svg width="24" height="24" viewBox="0 0 24 24" fill="none" xmlns="http://www.w3.org/2000/svg">
<path d="M5.26742 17.2646L5.17903 17.353L5.09064 17.4414L5.09591 17.4467C4.77586 17.854 4.80357 18.4455 5.17903 18.821C5.5545 19.1964 6.14604 19.2241 6.5534 18.9041L6.55867 18.9093L6.64703 18.821C6.64703 18.821 6.64704 18.821 6.64705 18.821L6.73544 18.7326L12 13.468L17.2646 18.7326L17.353 18.821L17.4414 18.9093L17.4467 18.9041C17.854 19.2241 18.4455 19.1964 18.821 18.821C19.1964 18.4455 19.2241 17.854 18.9041 17.4467L18.9093 17.4414L18.821 17.353L18.7326 17.2646L13.468 12L18.7326 6.73544L18.821 6.64705C18.821 6.64705 18.821 6.64704 18.821 6.64704L18.9093 6.55867L18.9041 6.5534C19.2241 6.14605 19.1964 5.5545 18.821 5.17903C18.4455 4.80357 17.854 4.77586 17.4467 5.09591L17.4414 5.09064L17.353 5.17903L17.2646 5.26742L12 10.5321L6.73544 5.26742L6.64705 5.17903L6.55866 5.09064L6.5534 5.09591C6.14604 4.77586 5.5545 4.80357 5.17903 5.17903C4.80357 5.5545 4.77586 6.14604 5.09591 6.5534L5.09064 6.55866L5.17903 6.64705L5.26742 6.73544L10.5321 12L5.26742 17.2646Z" fill="#7B91B0" stroke="#7B91B0" stroke-width="0.25"/>
</svg>
