<svg width="377" height="304" viewBox="0 0 377 304" fill="none" xmlns="http://www.w3.org/2000/svg">
<g filter="url(#filter0_d_2167_657806)">
<path d="M38 64.3038C38 54.8757 38 50.1617 40.9289 47.2328C43.8579 44.3038 48.5719 44.3038 58 44.3038H162.482C165.694 44.3038 167.3 44.3038 168.803 43.8172C170.305 43.3305 171.606 42.3888 174.208 40.5054L181.774 35.0293L191.39 41.1645C193.834 42.7234 195.056 43.5029 196.428 43.9034C197.8 44.3038 199.249 44.3038 202.148 44.3038H319C328.428 44.3038 333.142 44.3038 336.071 47.2328C339 50.1617 339 54.8757 339 64.3038V90.9162V116.054V242.64C339 252.068 339 256.782 336.071 259.711C333.142 262.64 328.428 262.64 319 262.64H196.311L168.96 262.896H162.286L57.9587 262.681C48.5484 262.661 43.8433 262.652 40.9216 259.724C38 256.796 38 252.091 38 242.681V64.3038Z" fill="white"/>
<path d="M196.311 262.14L196.306 262.14L168.96 262.396H168.959H162.287H162.286L57.9598 262.181C53.2405 262.171 49.7513 262.163 47.0745 261.798C44.4121 261.434 42.6283 260.726 41.2756 259.371C39.9228 258.015 39.2185 256.23 38.8608 253.567C38.5011 250.889 38.5 247.4 38.5 242.681V64.3038C38.5 59.5756 38.5011 56.0798 38.8617 53.3977C39.2203 50.73 39.9264 48.9424 41.2825 47.5863C42.6386 46.2302 44.4262 45.5241 47.0939 45.1655C49.776 44.8049 53.2718 44.8038 58 44.8038H162.482L162.583 44.8038C165.699 44.8039 167.379 44.8039 168.957 44.2928C170.535 43.7818 171.895 42.7968 174.419 40.9699L174.502 40.9104L181.792 35.6337L191.121 41.586L191.198 41.635C193.569 43.1475 194.847 43.9628 196.288 44.3834C197.729 44.8039 199.244 44.8039 202.056 44.8038L202.148 44.8038H319C323.728 44.8038 327.224 44.8049 329.906 45.1655C332.574 45.5241 334.361 46.2302 335.718 47.5863C337.074 48.9424 337.78 50.73 338.138 53.3977C338.499 56.0798 338.5 59.5756 338.5 64.3038V90.9162V116.054V242.64C338.5 247.368 338.499 250.864 338.138 253.546C337.78 256.213 337.074 258.001 335.718 259.357C334.361 260.713 332.574 261.419 329.906 261.778C327.224 262.139 323.728 262.14 319 262.14L196.311 262.14Z" stroke="#C3D3E2" stroke-opacity="0.2"/>
</g>
<defs>
<filter id="filter0_d_2167_657806" x="0" y="0.0292969" width="377" height="303.867" filterUnits="userSpaceOnUse" color-interpolation-filters="sRGB">
<feFlood flood-opacity="0" result="BackgroundImageFix"/>
<feColorMatrix in="SourceAlpha" type="matrix" values="0 0 0 0 0 0 0 0 0 0 0 0 0 0 0 0 0 0 127 0" result="hardAlpha"/>
<feMorphology radius="2" operator="dilate" in="SourceAlpha" result="effect1_dropShadow_2167_657806"/>
<feOffset dy="3"/>
<feGaussianBlur stdDeviation="18"/>
<feComposite in2="hardAlpha" operator="out"/>
<feColorMatrix type="matrix" values="0 0 0 0 0 0 0 0 0 0 0 0 0 0 0 0 0 0 0.1 0"/>
<feBlend mode="normal" in2="BackgroundImageFix" result="effect1_dropShadow_2167_657806"/>
<feBlend mode="normal" in="SourceGraphic" in2="effect1_dropShadow_2167_657806" result="shape"/>
</filter>
</defs>
</svg>
