<svg width="357" height="337" viewBox="0 0 357 337" fill="none" xmlns="http://www.w3.org/2000/svg">
<g opacity="0.4" clip-path="url(#clip0_4477_36169)">
<path d="M232.769 -39.2259C167.099 12.3934 157.342 109.435 210.917 177.593C264.493 245.752 361.093 259.191 426.763 207.572C492.432 155.952 502.19 58.9111 448.615 -9.24739C395.039 -77.4059 298.439 -90.8452 232.769 -39.2259ZM391.561 162.789C349.76 195.646 288.216 187.096 254.079 143.666C219.941 100.237 226.169 38.4144 267.97 5.5569C309.771 -27.3006 371.316 -18.7501 405.453 24.6794C439.591 68.1089 433.363 129.931 391.561 162.789Z" fill="#FE6B02" fill-opacity="0.08"/>
<path d="M190.361 -86.3039C272.48 -150.852 389.352 -141.405 461.97 -68.1113C457.78 -74.9691 453.343 -81.6325 448.314 -88.03C377.912 -177.596 249.125 -193.8 160.576 -124.197C72.0266 -54.5936 57.3538 74.3766 127.756 163.942C132.785 170.34 138.212 176.225 143.886 181.917C89.8183 94.0414 108.243 -21.7555 190.361 -86.3039Z" fill="#FE6B02" fill-opacity="0.08"/>
</g>
<defs>
<clipPath id="clip0_4477_36169">
<rect width="407.734" height="425.334" fill="white" transform="translate(0.296875 1.78906) rotate(-38.1689)"/>
</clipPath>
</defs>
</svg>
