<svg width="24" height="24" viewBox="0 0 24 24" fill="none" xmlns="http://www.w3.org/2000/svg">
<g opacity="0.6">
<path d="M18.1297 13.0346C18.7011 12.4632 18.7011 11.5369 18.1297 10.9655L13.6643 6.50007C13.2737 6.10955 12.6406 6.10955 12.2501 6.50008C11.8595 6.8906 11.8595 7.52376 12.2501 7.91428L16.3359 12.0001L12.2501 16.0859C11.8595 16.4764 11.8595 17.1095 12.2501 17.5001C12.6406 17.8906 13.2737 17.8906 13.6643 17.5001L18.1297 13.0346ZM12.4798 13.0346C13.0512 12.4632 13.0512 11.5369 12.4798 10.9655L8.01438 6.50007C7.62386 6.10955 6.99069 6.10955 6.60017 6.50007C6.20965 6.8906 6.20965 7.52376 6.60017 7.91428L10.686 12.0001L6.60017 16.0859C6.20965 16.4764 6.20965 17.1095 6.60017 17.5001C6.9907 17.8906 7.62386 17.8906 8.01438 17.5001L12.4798 13.0346Z" fill="#7B91B0"/>
</g>
</svg>
