<svg width="24" height="24" viewBox="0 0 24 24" fill="none" xmlns="http://www.w3.org/2000/svg">
<g opacity="0.6">
<path d="M5.40022 11.4358C5.08858 11.7474 5.08858 12.2527 5.40022 12.5643L10.336 17.5001C10.7265 17.8906 11.3596 17.8906 11.7502 17.5001C12.1407 17.1095 12.1407 16.4764 11.7502 16.0859L7.66437 12.0001L11.7502 7.91428C12.1407 7.52376 12.1407 6.8906 11.7502 6.50007C11.3596 6.10955 10.7265 6.10955 10.336 6.50007L5.40022 11.4358ZM11.0501 11.4358C10.7385 11.7474 10.7385 12.2527 11.0501 12.5643L15.9859 17.5001C16.3764 17.8906 17.0095 17.8906 17.4001 17.5001C17.7906 17.1095 17.7906 16.4764 17.4001 16.0859L13.3143 12.0001L17.4001 7.91428C17.7906 7.52376 17.7906 6.8906 17.4001 6.50008C17.0095 6.10955 16.3764 6.10955 15.9859 6.50007L11.0501 11.4358Z" fill="#7B91B0"/>
</g>
</svg>
