<svg width="24" height="24" viewBox="0 0 24 24" fill="none" xmlns="http://www.w3.org/2000/svg">
<path d="M23.3289 11.2492C22.4875 9.48925 19.1879 3.75 12.0002 3.75C4.81249 3.75 1.51286 9.48925 0.671423 11.2492C0.558469 11.4851 0.5 11.7415 0.5 12.0009C0.5 12.2603 0.558469 12.5167 0.671423 12.7526C1.51286 14.5107 4.81249 20.25 12.0002 20.25C19.1879 20.25 22.4875 14.5108 23.3289 12.7508C23.4416 12.5152 23.5 12.2591 23.5 12C23.5 11.7409 23.4416 11.4848 23.3289 11.2492ZM12.0002 18.4167C5.95581 18.4167 3.13536 13.4978 2.41659 12.0101C3.13536 10.5022 5.95581 5.58333 12.0002 5.58333C18.0302 5.58333 20.8516 10.4811 21.5837 12C20.8516 13.5189 18.0302 18.4167 12.0002 18.4167Z" fill="#7B91B0"/>
<path d="M12.0033 7.41553C11.0968 7.41553 10.2106 7.68434 9.45689 8.18796C8.70317 8.69158 8.11571 9.4074 7.76881 10.2449C7.42191 11.0824 7.33114 12.0039 7.50799 12.893C7.68484 13.7821 8.12136 14.5988 8.76235 15.2398C9.40334 15.8808 10.22 16.3173 11.1091 16.4941C11.9982 16.671 12.9197 16.5802 13.7572 16.2333C14.5947 15.8864 15.3105 15.299 15.8142 14.5452C16.3178 13.7915 16.5866 12.9054 16.5866 11.9989C16.5851 10.7837 16.1018 9.61879 15.2426 8.75956C14.3833 7.90034 13.2184 7.41698 12.0033 7.41553ZM12.0033 14.7489C11.4594 14.7489 10.9277 14.5876 10.4754 14.2854C10.0232 13.9832 9.67073 13.5537 9.46259 13.0512C9.25445 12.5487 9.19999 11.9958 9.3061 11.4624C9.41221 10.9289 9.67412 10.4389 10.0587 10.0543C10.4433 9.66972 10.9333 9.40781 11.4668 9.3017C12.0002 9.19559 12.5531 9.25005 13.0556 9.45819C13.5581 9.66633 13.9876 10.0188 14.2898 10.471C14.592 10.9233 14.7533 11.455 14.7533 11.9989C14.7533 12.7282 14.4635 13.4277 13.9478 13.9434C13.4321 14.4591 12.7326 14.7489 12.0033 14.7489Z" fill="#7B91B0"/>
</svg>
