<svg width="24" height="24" viewBox="0 0 24 24" fill="none" xmlns="http://www.w3.org/2000/svg">
<path d="M23.3289 11.2206C22.403 9.22728 21.0469 7.46051 19.3565 6.04541L21.5791 3.8392C21.9556 3.46543 21.9557 2.85651 21.5793 2.48261C21.2067 2.11252 20.6054 2.11228 20.2325 2.48207L17.7503 4.94379C16.0036 3.94083 14.018 3.42083 12.0002 3.43786C4.81249 3.43786 1.51286 9.39403 0.671423 11.2206C0.558469 11.4653 0.5 11.7314 0.5 12.0006C0.5 12.2699 0.558469 12.5359 0.671423 12.7807C1.59733 14.774 2.95348 16.5408 4.64382 17.9559L2.42158 20.1625C2.04542 20.536 2.04547 21.1444 2.42169 21.5179C2.79393 21.8874 3.39451 21.8875 3.76692 21.5182L6.25002 19.0556C7.99676 20.0585 9.98234 20.5785 12.0002 20.5615C19.1879 20.5615 22.4875 14.6053 23.3289 12.7788C23.4416 12.5343 23.5 12.2686 23.5 11.9997C23.5 11.7308 23.4416 11.4651 23.3289 11.2206ZM2.41659 12.0101C3.13536 10.4452 5.95581 5.34048 12.0002 5.34048C13.5044 5.33176 14.9889 5.6801 16.33 6.35649L14.6385 8.03555C13.7184 7.42919 12.6153 7.15749 11.5164 7.26656C10.4175 7.37562 9.39043 7.85874 8.6095 8.63393C7.82857 9.40912 7.34188 10.4286 7.232 11.5195C7.12213 12.6103 7.39584 13.7053 8.00669 14.6186L6.01427 16.5964C4.48125 15.3572 3.2512 13.7892 2.41659 12.0101ZM14.8752 11.9997C14.8752 12.7566 14.5723 13.4825 14.0332 14.0177C13.494 14.5529 12.7627 14.8536 12.0002 14.8536C11.5732 14.852 11.1522 14.7544 10.7687 14.5682L14.5877 10.7772C14.7753 11.158 14.8736 11.5759 14.8752 11.9997ZM9.1251 11.9997C9.1251 11.2428 9.42801 10.5169 9.96719 9.98164C10.5064 9.44642 11.2377 9.14574 12.0002 9.14574C12.4271 9.14738 12.8481 9.24495 13.2317 9.43113L9.41261 13.2221C9.22504 12.8414 9.12675 12.4235 9.1251 11.9997ZM12.0002 18.6589C10.4959 18.6676 9.01139 18.3193 7.67031 17.6429L9.36181 15.9638C10.2819 16.5702 11.385 16.8419 12.4839 16.7328C13.5828 16.6237 14.6099 16.1406 15.3908 15.3654C16.1718 14.5902 16.6585 13.5707 16.7683 12.4799C16.8782 11.389 16.6045 10.294 15.9936 9.38071L17.9851 7.40388C19.5211 8.64422 20.7519 10.216 21.5837 11.9997C20.8516 13.576 18.0302 18.6589 12.0002 18.6589Z" fill="#7B91B0"/>
</svg>
