<svg width="18" height="19" viewBox="0 0 18 19" fill="none" xmlns="http://www.w3.org/2000/svg">
<g clip-path="url(#clip0_9686_37416)">
<path d="M9 10.4C9.255 10.4 9.4689 10.3136 9.6417 10.1408C9.8139 9.9686 9.9 9.755 9.9 9.5V5.8775C9.9 5.6225 9.8139 5.4125 9.6417 5.2475C9.4689 5.0825 9.255 5 9 5C8.745 5 8.5314 5.0861 8.3592 5.2583C8.1864 5.4311 8.1 5.645 8.1 5.9V9.5225C8.1 9.7775 8.1864 9.9875 8.3592 10.1525C8.5314 10.3175 8.745 10.4 9 10.4ZM9 14C9.255 14 9.4689 13.9136 9.6417 13.7408C9.8139 13.5686 9.9 13.355 9.9 13.1C9.9 12.845 9.8139 12.6311 9.6417 12.4583C9.4689 12.2861 9.255 12.2 9 12.2C8.745 12.2 8.5314 12.2861 8.3592 12.4583C8.1864 12.6311 8.1 12.845 8.1 13.1C8.1 13.355 8.1864 13.5686 8.3592 13.7408C8.5314 13.9136 8.745 14 9 14ZM9 18.5C7.755 18.5 6.585 18.2636 5.49 17.7908C4.395 17.3186 3.4425 16.6775 2.6325 15.8675C1.8225 15.0575 1.1814 14.105 0.7092 13.01C0.2364 11.915 0 10.745 0 9.5C0 8.255 0.2364 7.085 0.7092 5.99C1.1814 4.895 1.8225 3.9425 2.6325 3.1325C3.4425 2.3225 4.395 1.6811 5.49 1.2083C6.585 0.7361 7.755 0.5 9 0.5C10.245 0.5 11.415 0.7361 12.51 1.2083C13.605 1.6811 14.5575 2.3225 15.3675 3.1325C16.1775 3.9425 16.8186 4.895 17.2908 5.99C17.7636 7.085 18 8.255 18 9.5C18 10.745 17.7636 11.915 17.2908 13.01C16.8186 14.105 16.1775 15.0575 15.3675 15.8675C14.5575 16.6775 13.605 17.3186 12.51 17.7908C11.415 18.2636 10.245 18.5 9 18.5Z" fill="white"/>
</g>
<defs>
<clipPath id="clip0_9686_37416">
<rect width="18" height="18" fill="white" transform="translate(0 0.5)"/>
</clipPath>
</defs>
</svg>
