<svg width="24" height="24" viewBox="0 0 24 24" fill="none" xmlns="http://www.w3.org/2000/svg">
<path d="M11.3 12.8994H8.01592L12.2989 6.71802L11.6258 11.9867L11.6114 12.0994H11.725H15.5112L10.6993 17.8644L11.3989 13.0136L11.4154 12.8994H11.3ZM14.1131 9.89935L14.8992 3.53662L14.8993 3.53604C14.935 3.2326 14.8812 2.94542 14.7382 2.6773C14.5923 2.40381 14.3636 2.21283 14.0583 2.10506C13.7551 1.99808 13.4569 1.99279 13.1675 2.09229C12.8808 2.19084 12.6471 2.36627 12.4686 2.61623L12.4679 2.61726L4.99305 13.367C4.99301 13.3671 4.99298 13.3671 4.99295 13.3671C4.86762 13.5462 4.79623 13.7334 4.78453 13.9277C4.77282 14.1221 4.82126 14.3164 4.92429 14.509C5.02709 14.7012 5.16052 14.8501 5.32629 14.9505C5.49214 15.051 5.68461 15.0994 5.89997 15.0994H8.88445L8.101 20.51L8.10097 20.51L8.10065 20.5127C8.06483 20.8172 8.12331 21.1016 8.2762 21.3624C8.42796 21.6213 8.639 21.8146 8.90768 21.94C9.17839 22.0663 9.46021 22.0936 9.74922 22.0214C10.0369 21.9494 10.2799 21.7961 10.4763 21.564L10.4767 21.5634L18.7012 11.7141C18.7013 11.714 18.7014 11.7139 18.7015 11.7137C18.8525 11.536 18.9466 11.3465 18.977 11.1456C19.0074 10.9442 18.9727 10.7392 18.8784 10.5328C18.7843 10.3266 18.6526 10.1664 18.4814 10.0585C18.3104 9.95071 18.1066 9.89935 17.875 9.89935H14.1131Z" fill="white" stroke="white" stroke-width="0.2"/>
</svg>
