<svg width="24" height="24" viewBox="0 0 24 24" fill="none" xmlns="http://www.w3.org/2000/svg">
<path fill-rule="evenodd" clip-rule="evenodd" d="M9.60039 8.4C10.2631 8.4 10.8004 7.86274 10.8004 7.2C10.8004 6.53726 10.2631 6 9.60039 6C8.93765 6 8.40039 6.53726 8.40039 7.2C8.40039 7.86274 8.93765 8.4 9.60039 8.4ZM9.60039 13.2C10.2631 13.2 10.8004 12.6627 10.8004 12C10.8004 11.3373 10.2631 10.8 9.60039 10.8C8.93765 10.8 8.40039 11.3373 8.40039 12C8.40039 12.6627 8.93765 13.2 9.60039 13.2ZM10.8004 16.8C10.8004 17.4627 10.2631 18 9.60039 18C8.93765 18 8.40039 17.4627 8.40039 16.8C8.40039 16.1373 8.93765 15.6 9.60039 15.6C10.2631 15.6 10.8004 16.1373 10.8004 16.8ZM14.4004 8.4C15.0631 8.4 15.6004 7.86274 15.6004 7.2C15.6004 6.53726 15.0631 6 14.4004 6C13.7377 6 13.2004 6.53726 13.2004 7.2C13.2004 7.86274 13.7377 8.4 14.4004 8.4ZM15.6004 12C15.6004 12.6627 15.0631 13.2 14.4004 13.2C13.7377 13.2 13.2004 12.6627 13.2004 12C13.2004 11.3373 13.7377 10.8 14.4004 10.8C15.0631 10.8 15.6004 11.3373 15.6004 12ZM14.4004 18C15.0631 18 15.6004 17.4627 15.6004 16.8C15.6004 16.1373 15.0631 15.6 14.4004 15.6C13.7377 15.6 13.2004 16.1373 13.2004 16.8C13.2004 17.4627 13.7377 18 14.4004 18Z" fill="#425166"/>
</svg>
