<svg width="80" height="13" viewBox="0 60 13" fill="none" xmlns="http://www.w3.org/2000/svg">
<path d="M8.75104 6.5165L6.63054 5.2875L7.69954 2.722C7.73254 2.655 7.75104 2.5795 7.75104 2.5C7.75104 2.224 7.52854 2 7.25254 2C7.12804 2.002 7.02404 2.0415 6.94154 2.107L6.90654 2.137L3.15654 5.687C3.04204 5.7955 2.98554 5.9515 3.00354 6.108C3.02154 6.2645 3.11304 6.4035 3.24904 6.483L5.37004 7.713L4.28854 10.308C4.19704 10.526 4.27154 10.778 4.46554 10.912C4.55204 10.971 4.65154 11 4.75004 11C4.87404 11 4.99804 10.9535 5.09404 10.863L8.84404 7.312C8.95854 7.2035 9.01504 7.0475 8.99704 6.891C8.97854 6.7345 8.88704 6.5955 8.75104 6.5165Z" fill="#0E244B"/>
<path d="M20.751 6.5165L18.6305 5.2875L19.6995 2.722C19.7325 2.655 19.751 2.5795 19.751 2.5C19.751 2.224 19.5285 2 19.2525 2C19.128 2.002 19.024 2.0415 18.9415 2.107L18.9065 2.137L15.1565 5.687C15.042 5.7955 14.9855 5.9515 15.0035 6.108C15.0215 6.2645 15.113 6.4035 15.249 6.483L17.37 7.713L16.2885 10.308C16.197 10.526 16.2715 10.778 16.4655 10.912C16.552 10.971 16.6515 11 16.75 11C16.874 11 16.998 10.9535 17.094 10.863L20.844 7.312C20.9585 7.2035 21.015 7.0475 20.997 6.891C20.9785 6.7345 20.887 6.5955 20.751 6.5165Z" fill="#0E244B"/>
<path d="M32.751 6.5165L30.6305 5.2875L31.6995 2.722C31.7325 2.655 31.751 2.5795 31.751 2.5C31.751 2.224 31.5285 2 31.2525 2C31.128 2.002 31.024 2.0415 30.9415 2.107L30.9065 2.137L27.1565 5.687C27.042 5.7955 26.9855 5.9515 27.0035 6.108C27.0215 6.2645 27.113 6.4035 27.249 6.483L29.37 7.713L28.2885 10.308C28.197 10.526 28.2715 10.778 28.4655 10.912C28.552 10.971 28.6515 11 28.75 11C28.874 11 28.998 10.9535 29.094 10.863L32.844 7.312C32.9585 7.2035 33.015 7.0475 32.997 6.891C32.9785 6.7345 32.887 6.5955 32.751 6.5165Z" fill="#0E244B"/>
<path d="M44.751 6.5165L42.6305 5.2875L43.6995 2.722C43.7325 2.655 43.751 2.5795 43.751 2.5C43.751 2.224 43.5285 2 43.2525 2C43.128 2.002 43.024 2.0415 42.9415 2.107L42.9065 2.137L39.1565 5.687C39.042 5.7955 38.9855 5.9515 39.0035 6.108C39.0215 6.2645 39.113 6.4035 39.249 6.483L41.37 7.713L40.2885 10.308C40.197 10.526 40.2715 10.778 40.4655 10.912C40.552 10.971 40.6515 11 40.75 11C40.874 11 40.998 10.9535 41.094 10.863L44.844 7.312C44.9585 7.2035 45.015 7.0475 44.997 6.891C44.9785 6.7345 44.887 6.5955 44.751 6.5165Z" fill="#0E244B"/>
<path d="M56.751 6.5165L54.6305 5.2875L55.6995 2.722C55.7325 2.655 55.751 2.5795 55.751 2.5C55.751 2.224 55.5285 2 55.2525 2C55.128 2.002 55.024 2.0415 54.9415 2.107L54.9065 2.137L51.1565 5.687C51.042 5.7955 50.9855 5.9515 51.0035 6.108C51.0215 6.2645 51.113 6.4035 51.249 6.483L53.37 7.713L52.2885 10.308C52.197 10.526 52.2715 10.778 52.4655 10.912C52.552 10.971 52.6515 11 52.75 11C52.874 11 52.998 10.9535 53.094 10.863L56.844 7.312C56.9585 7.2035 57.015 7.0475 56.997 6.891C56.9785 6.7345 56.887 6.5955 56.751 6.5165Z" fill="#0E244B"/>
<path d="M68.751 6.5165L66.6305 5.2875L67.6995 2.722C67.7325 2.655 67.751 2.5795 67.751 2.5C67.751 2.224 67.5285 2 67.2525 2C67.128 2.002 67.024 2.0415 66.9415 2.107L66.9065 2.137L63.1565 5.687C63.042 5.7955 62.9855 5.9515 63.0035 6.108C63.0215 6.2645 63.113 6.4035 63.249 6.483L65.37 7.713L64.2885 10.308C64.197 10.526 64.2715 10.778 64.4655 10.912C64.552 10.971 64.6515 11 64.75 11C64.874 11 64.998 10.9535 65.094 10.863L68.844 7.312C68.9585 7.2035 69.015 7.0475 68.997 6.891C68.9785 6.7345 68.887 6.5955 68.751 6.5165Z" fill="#0E244B"/>
</svg>