<svg width="28" height="28" viewBox="0 0 28 28" fill="none" xmlns="http://www.w3.org/2000/svg">
<rect x="0.5" y="0.5" width="27" height="27" rx="3.5" stroke="#FE6B02" stroke-opacity="0.2"/>
<path d="M14 19.3472C13.7836 19.3472 13.6023 19.2739 13.4561 19.1272C13.3094 18.9811 13.2361 18.7998 13.2361 18.5833V14.7639H9.41667C9.20023 14.7639 9.01868 14.6906 8.87201 14.5439C8.72586 14.3977 8.65278 14.2164 8.65278 14C8.65278 13.7836 8.72586 13.602 8.87201 13.4553C9.01868 13.3092 9.20023 13.2361 9.41667 13.2361H13.2361V9.41667C13.2361 9.20023 13.3094 9.01868 13.4561 8.87201C13.6023 8.72586 13.7836 8.65278 14 8.65278C14.2164 8.65278 14.398 8.72586 14.5447 8.87201C14.6908 9.01868 14.7639 9.20023 14.7639 9.41667V13.2361H18.5833C18.7998 13.2361 18.9811 13.3092 19.1272 13.4553C19.2739 13.602 19.3472 13.7836 19.3472 14C19.3472 14.2164 19.2739 14.3977 19.1272 14.5439C18.9811 14.6906 18.7998 14.7639 18.5833 14.7639H14.7639V18.5833C14.7639 18.7998 14.6908 18.9811 14.5447 19.1272C14.398 19.2739 14.2164 19.3472 14 19.3472Z" fill="#FE6B02"/>
<path fill-rule="evenodd" clip-rule="evenodd" d="M8.76417 13.3471C8.94089 13.171 9.16184 13.0833 9.41667 13.0833H13.0833V9.41667C13.0833 9.16168 13.1714 8.94066 13.3481 8.76398C13.5244 8.58771 13.7452 8.5 14 8.5C14.2548 8.5 14.4758 8.58769 14.6525 8.7638C14.8286 8.94051 14.9167 9.16184 14.9167 9.41667V13.0833H18.5833C18.8382 13.0833 19.059 13.171 19.2353 13.3473C19.4119 13.524 19.5 13.745 19.5 14C19.5 14.2549 19.412 14.4757 19.2353 14.6519C19.059 14.8286 18.8382 14.9167 18.5833 14.9167H14.9167V18.5833C14.9167 18.8382 14.829 19.059 14.6527 19.2353C14.476 19.4119 14.255 19.5 14 19.5C13.7451 19.5 13.5243 19.412 13.3481 19.2353C13.1714 19.059 13.0833 18.8382 13.0833 18.5833V14.9167H9.41667C9.16168 14.9167 8.94066 14.8286 8.76398 14.6519C8.58771 14.4756 8.5 14.2548 8.5 14C8.5 13.7452 8.58807 13.5238 8.76417 13.3471ZM13.2361 14.7639V18.5833C13.2361 18.7998 13.3094 18.9811 13.4561 19.1272C13.6023 19.2739 13.7836 19.3472 14 19.3472C14.2164 19.3472 14.398 19.2739 14.5447 19.1272C14.6908 18.9811 14.7639 18.7998 14.7639 18.5833V14.7639H18.5833C18.7998 14.7639 18.9811 14.6906 19.1272 14.5439C19.2739 14.3977 19.3472 14.2164 19.3472 14C19.3472 13.7836 19.2739 13.602 19.1272 13.4553C18.9811 13.3092 18.7998 13.2361 18.5833 13.2361H14.7639V9.41667C14.7639 9.20023 14.6908 9.01868 14.5447 8.87201C14.398 8.72586 14.2164 8.65278 14 8.65278C13.7836 8.65278 13.6023 8.72586 13.4561 8.87201C13.3094 9.01868 13.2361 9.20023 13.2361 9.41667V13.2361H9.41667C9.20023 13.2361 9.01868 13.3092 8.87201 13.4553C8.72586 13.602 8.65278 13.7836 8.65278 14C8.65278 14.2164 8.72586 14.3977 8.87201 14.5439C9.01868 14.6906 9.20023 14.7639 9.41667 14.7639H13.2361Z" fill="#FE6B02"/>
</svg>
