<svg width="84" height="84" viewBox="0 0 84 84" fill="none" xmlns="http://www.w3.org/2000/svg">
<rect width="84" height="84" rx="14" fill="#EFF3F7"/>
<g opacity="0.5" clip-path="url(#clip0_1187_12877)">
<path d="M49.4122 45.666H34.5878C32.1785 45.6689 29.8686 46.6273 28.165 48.331C26.4613 50.0347 25.5029 52.3445 25.5 54.7539V63.9993H58.5V54.7539C58.4971 52.3445 57.5387 50.0347 55.835 48.331C54.1314 46.6273 51.8215 45.6689 49.4122 45.666Z" fill="#7B91B0"/>
<path d="M42 42C48.0751 42 53 37.0751 53 31C53 24.9249 48.0751 20 42 20C35.9249 20 31 24.9249 31 31C31 37.0751 35.9249 42 42 42Z" fill="#7B91B0"/>
</g>
<defs>
<clipPath id="clip0_1187_12877">
<rect width="44" height="44" fill="white" transform="translate(20 20)"/>
</clipPath>
</defs>
</svg>
