<svg width="25" height="24" viewBox="0 0 25 24" fill="none" xmlns="http://www.w3.org/2000/svg">
<path d="M18.6456 13.0346C19.217 12.4632 19.217 11.5369 18.6456 10.9655L14.1801 6.50007C13.7896 6.10955 13.1564 6.10955 12.7659 6.50008C12.3754 6.8906 12.3754 7.52376 12.7659 7.91428L16.8517 12.0001L12.7659 16.0859C12.3754 16.4764 12.3754 17.1095 12.7659 17.5001C13.1564 17.8906 13.7896 17.8906 14.1801 17.5001L18.6456 13.0346ZM12.9957 13.0346C13.5671 12.4632 13.5671 11.5369 12.9957 10.9655L8.53025 6.50007C8.13973 6.10955 7.50656 6.10955 7.11604 6.50007C6.72552 6.8906 6.72552 7.52376 7.11604 7.91428L11.2018 12.0001L7.11604 16.0859C6.72552 16.4764 6.72552 17.1095 7.11604 17.5001C7.50656 17.8906 8.13972 17.8906 8.53025 17.5001L12.9957 13.0346Z" fill="#425166"/>
</svg>
