<svg width="25" height="24" viewBox="0 0 25 24" fill="none" xmlns="http://www.w3.org/2000/svg">
<path d="M5.91585 11.4358C5.6042 11.7474 5.6042 12.2527 5.91585 12.5643L10.8516 17.5001C11.2421 17.8906 11.8753 17.8906 12.2658 17.5001C12.6563 17.1095 12.6563 16.4764 12.2658 16.0859L8.17999 12.0001L12.2658 7.91428C12.6563 7.52376 12.6563 6.8906 12.2658 6.50007C11.8753 6.10955 11.2421 6.10955 10.8516 6.50007L5.91585 11.4358ZM11.5658 11.4358C11.2541 11.7474 11.2541 12.2527 11.5658 12.5643L16.5015 17.5001C16.892 17.8906 17.5252 17.8906 17.9157 17.5001C18.3062 17.1095 18.3062 16.4764 17.9157 16.0859L13.8299 12.0001L17.9157 7.91428C18.3062 7.52376 18.3062 6.8906 17.9157 6.50008C17.5252 6.10955 16.892 6.10955 16.5015 6.50007L11.5658 11.4358Z" fill="#425166"/>
</svg>
