<svg width="24" height="24" viewBox="0 0 24 24" fill="none" xmlns="http://www.w3.org/2000/svg">
<g clip-path="url(#clip0_3114_22794)">
<path fill-rule="evenodd" clip-rule="evenodd" d="M12 0C5.37258 0 0 5.37258 0 12C0 18.6274 5.37258 24 12 24C18.6274 24 24 18.6274 24 12C24 5.37258 18.6274 0 12 0ZM18.361 8.77782C18.7906 8.34824 18.7906 7.65176 18.361 7.22218C17.9314 6.79261 17.235 6.79261 16.8054 7.22218L9.58319 14.4444L6.7778 11.6391C6.34821 11.2095 5.65173 11.2096 5.22217 11.6391C4.7926 12.0687 4.79261 12.7652 5.2222 13.1948L8.80541 16.7778C9.23499 17.2074 9.93146 17.2074 10.361 16.7778L18.361 8.77782Z" fill="white"/>
</g>
<defs>
<clipPath id="clip0_3114_22794">
<rect width="24" height="24" fill="white"/>
</clipPath>
</defs>
</svg>
