<svg width="20" height="20" viewBox="0 0 20 20" fill="none" xmlns="http://www.w3.org/2000/svg">
<path d="M2.7629 17C2.61067 17 2.47904 16.9641 2.36802 16.8923C2.25698 16.8205 2.17172 16.73 2.11224 16.6209C2.04559 16.5166 2.00965 16.3979 2.00441 16.2649C1.99917 16.1319 2.03511 15.9979 2.11224 15.8628L9.34894 3.3684C9.42607 3.23931 9.52189 3.14564 9.63638 3.08739C9.75089 3.02913 9.87233 3 10.0007 3C10.1291 3 10.2501 3.02913 10.3639 3.08739C10.4777 3.14564 10.5731 3.23931 10.6503 3.3684L17.887 15.8628C17.9641 15.9979 18 16.1319 17.9948 16.2649C17.9895 16.3979 17.9536 16.5166 17.887 16.6209C17.8262 16.7272 17.7407 16.8169 17.6303 16.8901C17.5198 16.9634 17.3885 17 17.2363 17H2.7629ZM3.86154 15.6117H16.1377L9.9996 5.00775L3.86154 15.6117ZM10.0784 14.6321C10.2438 14.6321 10.3861 14.5714 10.5052 14.4501C10.6243 14.3288 10.6839 14.1854 10.6839 14.0199C10.6839 13.8545 10.6232 13.714 10.5019 13.5985C10.3806 13.4829 10.2372 13.4251 10.0718 13.4251C9.90634 13.4251 9.76407 13.484 9.64495 13.6018C9.52584 13.7195 9.46628 13.8611 9.46628 14.0266C9.46628 14.192 9.52694 14.3343 9.64825 14.4534C9.76958 14.5725 9.91296 14.6321 10.0784 14.6321ZM10.0784 12.5587C10.2397 12.5587 10.3739 12.5044 10.4808 12.3959C10.5878 12.2874 10.6412 12.153 10.6412 11.9926V8.98301C10.6412 8.8226 10.5867 8.68815 10.4775 8.57964C10.3684 8.47113 10.2331 8.41687 10.0718 8.41687C9.91043 8.41687 9.77629 8.47113 9.66935 8.57964C9.56242 8.68815 9.50895 8.8226 9.50895 8.98301V11.9926C9.50895 12.153 9.56352 12.2874 9.67265 12.3959C9.78181 12.5044 9.91705 12.5587 10.0784 12.5587Z" fill="#F73F3F"/>
</svg>
